<mxfile host="app.diagrams.net" modified="2024-02-28T15:18:23.830Z" agent="Mozilla/5.0 (Windows NT 10.0; Win64; x64) AppleWebKit/537.36 (KHTML, like Gecko) Chrome/122.0.0.0 Safari/537.36 Edg/122.0.0.0" etag="VJ8WWURBeYBnEvpheRCi" version="23.1.6" type="device">
  <diagram name="Сторінка-1" id="_XXKR_IUMBMaYtfP8-WY">
    <mxGraphModel dx="1869" dy="631" grid="1" gridSize="10" guides="1" tooltips="1" connect="1" arrows="1" fold="1" page="1" pageScale="1" pageWidth="827" pageHeight="1169" math="0" shadow="0">
      <root>
        <mxCell id="0" />
        <mxCell id="1" parent="0" />
        <mxCell id="QOJqXSHRZHHX3jopu4hm-21" value="" style="html=1;dropTarget=0;whiteSpace=wrap;" parent="1" vertex="1">
          <mxGeometry x="-160" y="850" width="940" height="610" as="geometry" />
        </mxCell>
        <mxCell id="QOJqXSHRZHHX3jopu4hm-22" value="" style="shape=module;jettyWidth=8;jettyHeight=4;" parent="QOJqXSHRZHHX3jopu4hm-21" vertex="1">
          <mxGeometry x="1" width="20" height="20" relative="1" as="geometry">
            <mxPoint x="-27" y="7" as="offset" />
          </mxGeometry>
        </mxCell>
        <mxCell id="QOJqXSHRZHHX3jopu4hm-23" value="Program" style="text;html=1;align=center;verticalAlign=middle;resizable=0;points=[];autosize=1;strokeColor=none;fillColor=none;" parent="1" vertex="1">
          <mxGeometry x="-130" y="860" width="70" height="30" as="geometry" />
        </mxCell>
        <mxCell id="QOJqXSHRZHHX3jopu4hm-24" value="MainWindow" style="html=1;dropTarget=0;whiteSpace=wrap;" parent="1" vertex="1">
          <mxGeometry x="210" y="980" width="180" height="90" as="geometry" />
        </mxCell>
        <mxCell id="QOJqXSHRZHHX3jopu4hm-25" value="" style="shape=module;jettyWidth=8;jettyHeight=4;" parent="QOJqXSHRZHHX3jopu4hm-24" vertex="1">
          <mxGeometry x="1" width="20" height="20" relative="1" as="geometry">
            <mxPoint x="-27" y="7" as="offset" />
          </mxGeometry>
        </mxCell>
        <mxCell id="QOJqXSHRZHHX3jopu4hm-26" value="" style="rounded=0;orthogonalLoop=1;jettySize=auto;html=1;endArrow=oval;endFill=0;sketch=0;sourcePerimeterSpacing=0;targetPerimeterSpacing=0;endSize=10;exitX=0.75;exitY=0;exitDx=0;exitDy=0;" parent="1" source="QOJqXSHRZHHX3jopu4hm-24" edge="1">
          <mxGeometry relative="1" as="geometry">
            <mxPoint x="360" y="770" as="sourcePoint" />
            <mxPoint x="340" y="810" as="targetPoint" />
          </mxGeometry>
        </mxCell>
        <mxCell id="QOJqXSHRZHHX3jopu4hm-27" value="Controller" style="text;html=1;align=center;verticalAlign=middle;resizable=0;points=[];autosize=1;strokeColor=none;fillColor=none;" parent="1" vertex="1">
          <mxGeometry x="300" y="768" width="80" height="30" as="geometry" />
        </mxCell>
        <mxCell id="QOJqXSHRZHHX3jopu4hm-28" value="" style="rounded=0;orthogonalLoop=1;jettySize=auto;html=1;endArrow=oval;endFill=0;sketch=0;sourcePerimeterSpacing=0;targetPerimeterSpacing=0;endSize=10;" parent="1" source="QOJqXSHRZHHX3jopu4hm-24" edge="1">
          <mxGeometry relative="1" as="geometry">
            <mxPoint x="375" y="940" as="sourcePoint" />
            <mxPoint x="260" y="810" as="targetPoint" />
          </mxGeometry>
        </mxCell>
        <mxCell id="QOJqXSHRZHHX3jopu4hm-29" value="Background" style="text;html=1;align=center;verticalAlign=middle;resizable=0;points=[];autosize=1;strokeColor=none;fillColor=none;" parent="1" vertex="1">
          <mxGeometry x="210" y="768" width="90" height="30" as="geometry" />
        </mxCell>
        <mxCell id="QOJqXSHRZHHX3jopu4hm-30" value="Settings" style="html=1;dropTarget=0;whiteSpace=wrap;" parent="1" vertex="1">
          <mxGeometry x="-110" y="900" width="180" height="90" as="geometry" />
        </mxCell>
        <mxCell id="QOJqXSHRZHHX3jopu4hm-31" value="" style="shape=module;jettyWidth=8;jettyHeight=4;" parent="QOJqXSHRZHHX3jopu4hm-30" vertex="1">
          <mxGeometry x="1" width="20" height="20" relative="1" as="geometry">
            <mxPoint x="-27" y="7" as="offset" />
          </mxGeometry>
        </mxCell>
        <mxCell id="QOJqXSHRZHHX3jopu4hm-35" value="" style="rounded=0;orthogonalLoop=1;jettySize=auto;html=1;endArrow=halfCircle;endFill=0;endSize=6;strokeWidth=1;sketch=0;" parent="1" source="QOJqXSHRZHHX3jopu4hm-30" target="QOJqXSHRZHHX3jopu4hm-37" edge="1">
          <mxGeometry relative="1" as="geometry">
            <mxPoint x="260" y="945" as="sourcePoint" />
          </mxGeometry>
        </mxCell>
        <mxCell id="QOJqXSHRZHHX3jopu4hm-36" value="" style="rounded=0;orthogonalLoop=1;jettySize=auto;html=1;endArrow=oval;endFill=0;sketch=0;sourcePerimeterSpacing=0;targetPerimeterSpacing=0;endSize=10;" parent="1" source="QOJqXSHRZHHX3jopu4hm-24" target="QOJqXSHRZHHX3jopu4hm-37" edge="1">
          <mxGeometry relative="1" as="geometry">
            <mxPoint x="220" y="945" as="sourcePoint" />
          </mxGeometry>
        </mxCell>
        <mxCell id="QOJqXSHRZHHX3jopu4hm-37" value="" style="ellipse;whiteSpace=wrap;html=1;align=center;aspect=fixed;fillColor=none;strokeColor=none;resizable=0;perimeter=centerPerimeter;rotatable=0;allowArrows=0;points=[];outlineConnect=1;" parent="1" vertex="1">
          <mxGeometry x="130" y="940" width="10" height="10" as="geometry" />
        </mxCell>
        <mxCell id="QOJqXSHRZHHX3jopu4hm-38" value="ChangedSettings" style="text;html=1;align=center;verticalAlign=middle;resizable=0;points=[];autosize=1;strokeColor=none;fillColor=none;" parent="1" vertex="1">
          <mxGeometry x="90" y="910" width="120" height="30" as="geometry" />
        </mxCell>
        <mxCell id="QOJqXSHRZHHX3jopu4hm-43" value="Tutorial" style="html=1;dropTarget=0;whiteSpace=wrap;" parent="1" vertex="1">
          <mxGeometry x="-130" y="1050" width="180" height="90" as="geometry" />
        </mxCell>
        <mxCell id="QOJqXSHRZHHX3jopu4hm-44" value="" style="shape=module;jettyWidth=8;jettyHeight=4;" parent="QOJqXSHRZHHX3jopu4hm-43" vertex="1">
          <mxGeometry x="1" width="20" height="20" relative="1" as="geometry">
            <mxPoint x="-27" y="7" as="offset" />
          </mxGeometry>
        </mxCell>
        <mxCell id="QOJqXSHRZHHX3jopu4hm-45" value="" style="rounded=0;orthogonalLoop=1;jettySize=auto;html=1;endArrow=halfCircle;endFill=0;endSize=6;strokeWidth=1;sketch=0;exitX=1;exitY=0.75;exitDx=0;exitDy=0;" parent="1" source="QOJqXSHRZHHX3jopu4hm-44" target="QOJqXSHRZHHX3jopu4hm-47" edge="1">
          <mxGeometry relative="1" as="geometry">
            <mxPoint x="260" y="945" as="sourcePoint" />
          </mxGeometry>
        </mxCell>
        <mxCell id="QOJqXSHRZHHX3jopu4hm-46" value="" style="rounded=0;orthogonalLoop=1;jettySize=auto;html=1;endArrow=oval;endFill=0;sketch=0;sourcePerimeterSpacing=0;targetPerimeterSpacing=0;endSize=10;" parent="1" source="QOJqXSHRZHHX3jopu4hm-24" target="QOJqXSHRZHHX3jopu4hm-47" edge="1">
          <mxGeometry relative="1" as="geometry">
            <mxPoint x="220" y="945" as="sourcePoint" />
          </mxGeometry>
        </mxCell>
        <mxCell id="QOJqXSHRZHHX3jopu4hm-47" value="" style="ellipse;whiteSpace=wrap;html=1;align=center;aspect=fixed;fillColor=none;strokeColor=none;resizable=0;perimeter=centerPerimeter;rotatable=0;allowArrows=0;points=[];outlineConnect=1;" parent="1" vertex="1">
          <mxGeometry x="80" y="1070" width="10" height="10" as="geometry" />
        </mxCell>
        <mxCell id="QOJqXSHRZHHX3jopu4hm-51" value="Tutorial" style="text;html=1;align=center;verticalAlign=middle;resizable=0;points=[];autosize=1;strokeColor=none;fillColor=none;" parent="1" vertex="1">
          <mxGeometry x="70" y="1030" width="60" height="30" as="geometry" />
        </mxCell>
        <mxCell id="QOJqXSHRZHHX3jopu4hm-52" value="" style="rounded=0;orthogonalLoop=1;jettySize=auto;html=1;endArrow=halfCircle;endFill=0;endSize=6;strokeWidth=1;sketch=0;exitX=0.392;exitY=0.032;exitDx=0;exitDy=0;exitPerimeter=0;" parent="1" source="QOJqXSHRZHHX3jopu4hm-55" target="QOJqXSHRZHHX3jopu4hm-54" edge="1">
          <mxGeometry relative="1" as="geometry">
            <mxPoint x="210" y="1155" as="sourcePoint" />
          </mxGeometry>
        </mxCell>
        <mxCell id="QOJqXSHRZHHX3jopu4hm-53" value="" style="rounded=0;orthogonalLoop=1;jettySize=auto;html=1;endArrow=oval;endFill=0;sketch=0;sourcePerimeterSpacing=0;targetPerimeterSpacing=0;endSize=10;exitX=0;exitY=0.5;exitDx=0;exitDy=0;entryX=0.294;entryY=1.029;entryDx=0;entryDy=0;entryPerimeter=0;" parent="1" target="QOJqXSHRZHHX3jopu4hm-54" edge="1">
          <mxGeometry relative="1" as="geometry">
            <mxPoint x="424.99999999999955" y="1120" as="sourcePoint" />
          </mxGeometry>
        </mxCell>
        <mxCell id="QOJqXSHRZHHX3jopu4hm-54" value="" style="ellipse;whiteSpace=wrap;html=1;align=center;aspect=fixed;fillColor=none;strokeColor=none;resizable=0;perimeter=centerPerimeter;rotatable=0;allowArrows=0;points=[];outlineConnect=1;" parent="1" vertex="1">
          <mxGeometry x="300" y="1120" width="10" height="10" as="geometry" />
        </mxCell>
        <mxCell id="QOJqXSHRZHHX3jopu4hm-55" value="" style="html=1;dropTarget=0;whiteSpace=wrap;" parent="1" vertex="1">
          <mxGeometry x="220" y="1179" width="200" height="91" as="geometry" />
        </mxCell>
        <mxCell id="QOJqXSHRZHHX3jopu4hm-56" value="" style="shape=module;jettyWidth=8;jettyHeight=4;" parent="QOJqXSHRZHHX3jopu4hm-55" vertex="1">
          <mxGeometry x="1" width="20" height="20" relative="1" as="geometry">
            <mxPoint x="-27" y="7" as="offset" />
          </mxGeometry>
        </mxCell>
        <mxCell id="QOJqXSHRZHHX3jopu4hm-57" value="game" style="text;html=1;align=center;verticalAlign=middle;resizable=0;points=[];autosize=1;strokeColor=none;fillColor=none;" parent="1" vertex="1">
          <mxGeometry x="310" y="1120" width="50" height="30" as="geometry" />
        </mxCell>
        <mxCell id="QOJqXSHRZHHX3jopu4hm-61" value="TextureManager" style="html=1;dropTarget=0;whiteSpace=wrap;" parent="1" vertex="1">
          <mxGeometry x="-30" y="1290" width="180" height="90" as="geometry" />
        </mxCell>
        <mxCell id="QOJqXSHRZHHX3jopu4hm-62" value="" style="shape=module;jettyWidth=8;jettyHeight=4;" parent="QOJqXSHRZHHX3jopu4hm-61" vertex="1">
          <mxGeometry x="1" width="20" height="20" relative="1" as="geometry">
            <mxPoint x="-27" y="7" as="offset" />
          </mxGeometry>
        </mxCell>
        <mxCell id="QOJqXSHRZHHX3jopu4hm-66" value="" style="rounded=0;whiteSpace=wrap;html=1;" parent="1" vertex="1">
          <mxGeometry x="280" y="970" width="20" height="20" as="geometry" />
        </mxCell>
        <mxCell id="QOJqXSHRZHHX3jopu4hm-67" value="" style="rounded=0;whiteSpace=wrap;html=1;" parent="1" vertex="1">
          <mxGeometry x="335" y="970" width="20" height="20" as="geometry" />
        </mxCell>
        <mxCell id="QOJqXSHRZHHX3jopu4hm-68" value="Game" style="text;html=1;align=center;verticalAlign=middle;whiteSpace=wrap;rounded=0;" parent="1" vertex="1">
          <mxGeometry x="305" y="1180" width="60" height="30" as="geometry" />
        </mxCell>
        <mxCell id="QOJqXSHRZHHX3jopu4hm-70" value="" style="rounded=0;orthogonalLoop=1;jettySize=auto;html=1;endArrow=halfCircle;endFill=0;endSize=6;strokeWidth=1;sketch=0;entryX=0.429;entryY=0.947;entryDx=0;entryDy=0;entryPerimeter=0;" parent="1" source="QOJqXSHRZHHX3jopu4hm-61" target="QOJqXSHRZHHX3jopu4hm-72" edge="1">
          <mxGeometry relative="1" as="geometry">
            <mxPoint x="270" y="1225" as="sourcePoint" />
            <mxPoint x="210" y="1270" as="targetPoint" />
          </mxGeometry>
        </mxCell>
        <mxCell id="QOJqXSHRZHHX3jopu4hm-71" value="" style="rounded=0;orthogonalLoop=1;jettySize=auto;html=1;endArrow=oval;endFill=0;sketch=0;sourcePerimeterSpacing=0;targetPerimeterSpacing=0;endSize=10;exitX=0;exitY=0.5;exitDx=0;exitDy=0;" parent="1" source="QOJqXSHRZHHX3jopu4hm-55" target="QOJqXSHRZHHX3jopu4hm-72" edge="1">
          <mxGeometry relative="1" as="geometry">
            <mxPoint x="230" y="1225" as="sourcePoint" />
          </mxGeometry>
        </mxCell>
        <mxCell id="QOJqXSHRZHHX3jopu4hm-72" value="" style="ellipse;whiteSpace=wrap;html=1;align=center;aspect=fixed;fillColor=none;strokeColor=none;resizable=0;perimeter=centerPerimeter;rotatable=0;allowArrows=0;points=[];outlineConnect=1;" parent="1" vertex="1">
          <mxGeometry x="190" y="1260" width="10" height="10" as="geometry" />
        </mxCell>
        <mxCell id="QOJqXSHRZHHX3jopu4hm-73" value="Textures" style="text;html=1;align=center;verticalAlign=middle;resizable=0;points=[];autosize=1;strokeColor=none;fillColor=none;" parent="1" vertex="1">
          <mxGeometry x="150" y="1230" width="70" height="30" as="geometry" />
        </mxCell>
        <mxCell id="QOJqXSHRZHHX3jopu4hm-76" value="All_Platforms" style="html=1;dropTarget=0;whiteSpace=wrap;" parent="1" vertex="1">
          <mxGeometry x="200" y="1340" width="180" height="90" as="geometry" />
        </mxCell>
        <mxCell id="QOJqXSHRZHHX3jopu4hm-77" value="" style="shape=module;jettyWidth=8;jettyHeight=4;" parent="QOJqXSHRZHHX3jopu4hm-76" vertex="1">
          <mxGeometry x="1" width="20" height="20" relative="1" as="geometry">
            <mxPoint x="-27" y="7" as="offset" />
          </mxGeometry>
        </mxCell>
        <mxCell id="QOJqXSHRZHHX3jopu4hm-80" value="" style="ellipse;whiteSpace=wrap;html=1;align=center;aspect=fixed;fillColor=none;strokeColor=none;resizable=0;perimeter=centerPerimeter;rotatable=0;allowArrows=0;points=[];outlineConnect=1;" parent="1" vertex="1">
          <mxGeometry x="285" y="1310" width="10" height="10" as="geometry" />
        </mxCell>
        <mxCell id="QOJqXSHRZHHX3jopu4hm-81" value="Platforms" style="text;html=1;align=center;verticalAlign=middle;resizable=0;points=[];autosize=1;strokeColor=none;fillColor=none;" parent="1" vertex="1">
          <mxGeometry x="305" y="1300" width="70" height="30" as="geometry" />
        </mxCell>
        <mxCell id="QOJqXSHRZHHX3jopu4hm-85" value="Doodle_mech" style="html=1;dropTarget=0;whiteSpace=wrap;" parent="1" vertex="1">
          <mxGeometry x="450" y="1320" width="180" height="90" as="geometry" />
        </mxCell>
        <mxCell id="QOJqXSHRZHHX3jopu4hm-86" value="" style="shape=module;jettyWidth=8;jettyHeight=4;" parent="QOJqXSHRZHHX3jopu4hm-85" vertex="1">
          <mxGeometry x="1" width="20" height="20" relative="1" as="geometry">
            <mxPoint x="-27" y="7" as="offset" />
          </mxGeometry>
        </mxCell>
        <mxCell id="QOJqXSHRZHHX3jopu4hm-87" value="" style="rounded=0;orthogonalLoop=1;jettySize=auto;html=1;endArrow=halfCircle;endFill=0;endSize=6;strokeWidth=1;sketch=0;" parent="1" source="QOJqXSHRZHHX3jopu4hm-85" target="QOJqXSHRZHHX3jopu4hm-89" edge="1">
          <mxGeometry relative="1" as="geometry">
            <mxPoint x="270" y="1115" as="sourcePoint" />
          </mxGeometry>
        </mxCell>
        <mxCell id="QOJqXSHRZHHX3jopu4hm-88" value="" style="rounded=0;orthogonalLoop=1;jettySize=auto;html=1;endArrow=oval;endFill=0;sketch=0;sourcePerimeterSpacing=0;targetPerimeterSpacing=0;endSize=10;" parent="1" source="QOJqXSHRZHHX3jopu4hm-55" target="QOJqXSHRZHHX3jopu4hm-89" edge="1">
          <mxGeometry relative="1" as="geometry">
            <mxPoint x="230" y="1115" as="sourcePoint" />
          </mxGeometry>
        </mxCell>
        <mxCell id="QOJqXSHRZHHX3jopu4hm-89" value="" style="ellipse;whiteSpace=wrap;html=1;align=center;aspect=fixed;fillColor=none;strokeColor=none;resizable=0;perimeter=centerPerimeter;rotatable=0;allowArrows=0;points=[];outlineConnect=1;" parent="1" vertex="1">
          <mxGeometry x="480" y="1270" width="10" height="10" as="geometry" />
        </mxCell>
        <mxCell id="QOJqXSHRZHHX3jopu4hm-90" value="Control" style="text;html=1;align=center;verticalAlign=middle;resizable=0;points=[];autosize=1;strokeColor=none;fillColor=none;" parent="1" vertex="1">
          <mxGeometry x="480" y="1250" width="60" height="30" as="geometry" />
        </mxCell>
        <mxCell id="QOJqXSHRZHHX3jopu4hm-91" value="" style="rounded=0;orthogonalLoop=1;jettySize=auto;html=1;endArrow=halfCircle;endFill=0;endSize=6;strokeWidth=1;sketch=0;" parent="1" source="QOJqXSHRZHHX3jopu4hm-76" target="QOJqXSHRZHHX3jopu4hm-93" edge="1">
          <mxGeometry relative="1" as="geometry">
            <mxPoint x="330" y="1235" as="sourcePoint" />
          </mxGeometry>
        </mxCell>
        <mxCell id="QOJqXSHRZHHX3jopu4hm-92" value="" style="rounded=0;orthogonalLoop=1;jettySize=auto;html=1;endArrow=oval;endFill=0;sketch=0;sourcePerimeterSpacing=0;targetPerimeterSpacing=0;endSize=10;" parent="1" source="QOJqXSHRZHHX3jopu4hm-55" target="QOJqXSHRZHHX3jopu4hm-93" edge="1">
          <mxGeometry relative="1" as="geometry">
            <mxPoint x="290" y="1230" as="sourcePoint" />
          </mxGeometry>
        </mxCell>
        <mxCell id="QOJqXSHRZHHX3jopu4hm-93" value="" style="ellipse;whiteSpace=wrap;html=1;align=center;aspect=fixed;fillColor=none;strokeColor=none;resizable=0;perimeter=centerPerimeter;rotatable=0;allowArrows=0;points=[];outlineConnect=1;" parent="1" vertex="1">
          <mxGeometry x="295" y="1290" width="10" height="10" as="geometry" />
        </mxCell>
        <mxCell id="QOJqXSHRZHHX3jopu4hm-100" value="" style="rounded=0;orthogonalLoop=1;jettySize=auto;html=1;endArrow=halfCircle;endFill=0;endSize=6;strokeWidth=1;sketch=0;" parent="1" target="QOJqXSHRZHHX3jopu4hm-102" edge="1">
          <mxGeometry relative="1" as="geometry">
            <mxPoint x="424.99999999999955" y="1103.3333333333335" as="sourcePoint" />
          </mxGeometry>
        </mxCell>
        <mxCell id="QOJqXSHRZHHX3jopu4hm-101" value="" style="rounded=0;orthogonalLoop=1;jettySize=auto;html=1;endArrow=oval;endFill=0;sketch=0;sourcePerimeterSpacing=0;targetPerimeterSpacing=0;endSize=10;exitX=0.75;exitY=1;exitDx=0;exitDy=0;" parent="1" source="QOJqXSHRZHHX3jopu4hm-24" target="QOJqXSHRZHHX3jopu4hm-102" edge="1">
          <mxGeometry relative="1" as="geometry">
            <mxPoint x="310" y="1100" as="sourcePoint" />
          </mxGeometry>
        </mxCell>
        <mxCell id="QOJqXSHRZHHX3jopu4hm-102" value="" style="ellipse;whiteSpace=wrap;html=1;align=center;aspect=fixed;fillColor=none;strokeColor=none;resizable=0;perimeter=centerPerimeter;rotatable=0;allowArrows=0;points=[];outlineConnect=1;" parent="1" vertex="1">
          <mxGeometry x="390" y="1090" width="10" height="10" as="geometry" />
        </mxCell>
        <mxCell id="QOJqXSHRZHHX3jopu4hm-103" value="Level" style="text;html=1;align=center;verticalAlign=middle;resizable=0;points=[];autosize=1;strokeColor=none;fillColor=none;" parent="1" vertex="1">
          <mxGeometry x="390" y="1060" width="50" height="30" as="geometry" />
        </mxCell>
        <mxCell id="QOJqXSHRZHHX3jopu4hm-104" value="Levels" style="html=1;dropTarget=0;whiteSpace=wrap;" parent="1" vertex="1">
          <mxGeometry x="425" y="1090" width="130" height="61" as="geometry" />
        </mxCell>
        <mxCell id="QOJqXSHRZHHX3jopu4hm-105" value="" style="shape=module;jettyWidth=8;jettyHeight=4;" parent="QOJqXSHRZHHX3jopu4hm-104" vertex="1">
          <mxGeometry x="1" width="20" height="20" relative="1" as="geometry">
            <mxPoint x="-27" y="7" as="offset" />
          </mxGeometry>
        </mxCell>
      </root>
    </mxGraphModel>
  </diagram>
</mxfile>
